<svg width="12" height="12" viewBox="0 0 12 12" fill="none" xmlns="http://www.w3.org/2000/svg">
<g clip-path="url(#clip0_7302_5916)">
<mask id="mask0_7302_5916" style="mask-type:luminance" maskUnits="userSpaceOnUse" x="0" y="0" width="12" height="12">
<path d="M0 0H12V12H0V0Z" fill="white"/>
</mask>
<g mask="url(#mask0_7302_5916)">
<path d="M5.817 0.792083C5.87896 0.764176 5.94616 0.749829 6.01411 0.750002C6.08206 0.750174 6.14919 0.764862 6.211 0.793083L10.971 2.97108C11.0655 3.0143 11.1434 3.08722 11.1926 3.17874C11.2419 3.27026 11.26 3.37537 11.244 3.47808L11.245 3.50408V8.96308C11.245 9.05214 11.2201 9.13943 11.1731 9.21508C11.1261 9.29072 11.0589 9.35169 10.979 9.39108L6.254 11.7231C6.17841 11.7702 6.09109 11.7952 6.002 11.7951H6C5.92727 11.7952 5.85546 11.7788 5.79 11.7471L1.02 9.43708C0.939074 9.3981 0.870799 9.33706 0.823033 9.26099C0.775268 9.18492 0.749952 9.09691 0.75 9.00708V3.47408C0.75 3.45708 0.75 3.44108 0.753 3.42408C0.743027 3.32436 0.764583 3.22402 0.814634 3.1372C0.864685 3.05037 0.940708 2.98143 1.032 2.94008L5.817 0.792083ZM1.705 4.21708V8.70708L5.527 10.5591L5.535 5.96508L1.705 4.21708ZM6.489 5.96308L6.481 10.5471L10.291 8.66608V4.24308L6.489 5.96308ZM9.62 3.40308L6.01 1.75008L2.385 3.38008L6.013 5.03508L9.62 3.40308Z" fill="white"/>
</g>
</g>
<defs>
<clipPath id="clip0_7302_5916">
<rect width="12" height="12" fill="white"/>
</clipPath>
</defs>
</svg>
