<svg width="28" height="29" viewBox="0 0 28 29" fill="none" xmlns="http://www.w3.org/2000/svg">
<g clip-path="url(#clip0_6476_4053)">
<path d="M14.0008 6.04102C16.6994 6.04102 17.0188 6.05145 18.0847 6.09999C19.07 6.14492 19.6051 6.3094 19.9613 6.4478C20.4008 6.60963 20.7984 6.86805 21.1247 7.20401C21.4607 7.53032 21.7191 7.92789 21.8809 8.3674C22.0193 8.72363 22.1838 9.25879 22.2288 10.2441C22.2773 11.31 22.2877 11.6293 22.2877 14.328C22.2877 17.0266 22.2773 17.346 22.2288 18.4119C22.1838 19.3971 22.0193 19.9323 21.8809 20.2885C21.7126 20.7243 21.455 21.12 21.1247 21.4503C20.7944 21.7806 20.3987 22.0382 19.963 22.2065C19.6067 22.3449 19.0716 22.5094 18.0863 22.5543C17.0208 22.6029 16.701 22.6133 14.0024 22.6133C11.3037 22.6133 10.984 22.6029 9.91848 22.5543C8.93321 22.5094 8.39805 22.3449 8.04182 22.2065C7.60231 22.0447 7.20474 21.7863 6.87843 21.4503C6.54247 21.124 6.28405 20.7264 6.12222 20.2869C5.98382 19.9307 5.81934 19.3955 5.77441 18.4103C5.72587 17.3444 5.71544 17.025 5.71544 14.3264C5.71544 11.6277 5.72587 11.3084 5.77441 10.2425C5.81934 9.25719 5.98382 8.72203 6.12222 8.36579C6.28405 7.92629 6.54247 7.52872 6.87843 7.2024C7.20474 6.86644 7.60231 6.60802 8.04182 6.4462C8.39805 6.30779 8.93321 6.14331 9.91848 6.09838C10.9844 6.04984 11.3037 6.03941 14.0024 6.03941L14.0008 6.04102ZM14.0024 4.21851C11.2576 4.21851 10.9134 4.23014 9.83544 4.27948C8.7575 4.32883 8.02336 4.50093 7.38149 4.75046C6.70696 5.00437 6.09586 5.4022 5.59067 5.91625C5.07662 6.42143 4.67879 7.03254 4.42488 7.70707C4.17535 8.34894 4.00445 9.08469 3.95551 10.1602C3.90657 11.2358 3.89453 11.5816 3.89453 14.3264C3.89453 17.0712 3.90617 17.4154 3.95551 18.4933C4.00485 19.5712 4.17535 20.3038 4.42488 20.9456C4.6789 21.6199 5.07672 22.2307 5.59067 22.7357C6.09568 23.25 6.70683 23.648 7.38149 23.9019C8.02336 24.1518 8.75911 24.3227 9.83464 24.3716C10.9102 24.4206 11.2568 24.4326 14.0016 24.4326C16.7464 24.4326 17.0906 24.421 18.1685 24.3716C19.2465 24.3223 19.9782 24.1518 20.6201 23.9019C21.2917 23.6424 21.9016 23.2454 22.4107 22.7363C22.9198 22.2272 23.3168 21.6172 23.5763 20.9456C23.8262 20.3038 23.9971 19.568 24.0461 18.4925C24.095 17.417 24.107 17.0704 24.107 14.3256C24.107 11.5808 24.0954 11.2366 24.0461 10.1586C23.9967 9.08067 23.8262 8.34894 23.5763 7.70707C23.3226 7.03277 22.9249 6.42191 22.4109 5.91706C21.9058 5.40271 21.2947 5.00461 20.6201 4.75046C19.9782 4.50093 19.2425 4.33003 18.1669 4.28109C17.0914 4.23215 16.7456 4.22011 14.0008 4.22011L14.0024 4.21851Z" fill="#7FFFD1"/>
<path d="M14.003 9.14917C12.9766 9.14917 11.9733 9.45353 11.1199 10.0238C10.2664 10.594 9.60129 11.4045 9.20851 12.3527C8.81573 13.301 8.71296 14.3444 8.91319 15.3511C9.11343 16.3578 9.60769 17.2825 10.3335 18.0082C11.0592 18.734 11.9839 19.2283 12.9906 19.4285C13.9972 19.6287 15.0407 19.526 15.9889 19.1332C16.9372 18.7404 17.7477 18.0752 18.3179 17.2218C18.8882 16.3684 19.1925 15.3651 19.1925 14.3387C19.1926 13.6572 19.0584 12.9823 18.7976 12.3527C18.5368 11.723 18.1546 11.1509 17.6727 10.669C17.1908 10.1871 16.6187 9.80487 15.989 9.54409C15.3594 9.28331 14.6845 9.14912 14.003 9.14917V9.14917ZM14.003 17.7085C13.3365 17.7085 12.685 17.5109 12.1308 17.1406C11.5767 16.7703 11.1447 16.244 10.8897 15.6283C10.6346 15.0125 10.5679 14.335 10.6979 13.6813C10.828 13.0276 11.1489 12.4271 11.6202 11.9559C12.0915 11.4846 12.6919 11.1636 13.3456 11.0336C13.9993 10.9036 14.6768 10.9703 15.2926 11.2254C15.9083 11.4804 16.4346 11.9124 16.8049 12.4665C17.1752 13.0207 17.3728 13.6722 17.3728 14.3387C17.3728 15.2324 17.0178 16.0896 16.3858 16.7215C15.7539 17.3535 14.8967 17.7085 14.003 17.7085Z" fill="#7FFFD1"/>
<path d="M19.3983 10.1528C20.0681 10.1528 20.611 9.6098 20.611 8.94003C20.611 8.27025 20.0681 7.72729 19.3983 7.72729C18.7285 7.72729 18.1855 8.27025 18.1855 8.94003C18.1855 9.6098 18.7285 10.1528 19.3983 10.1528Z" fill="#7FFFD1"/>
</g>
<defs>
<clipPath id="clip0_6476_4053">
<rect width="20.2125" height="20.2125" fill="white" transform="translate(3.89355 4.22729)"/>
</clipPath>
</defs>
</svg>
