<svg width="28" height="29" viewBox="0 0 28 29" fill="none" xmlns="http://www.w3.org/2000/svg">
<g clip-path="url(#clip0_6476_4067)">
<g clip-path="url(#clip1_6476_4067)">
<path fill-rule="evenodd" clip-rule="evenodd" d="M22.595 6.81151C23.5422 7.07492 24.2866 7.8482 24.5401 8.83221C24.9982 10.614 25.0001 14.3336 25.0001 14.3336C25.0001 14.3336 25.0001 18.0533 24.5401 19.8351C24.2866 20.8191 23.5422 21.5923 22.595 21.8557C20.8801 22.3336 14 22.3336 14 22.3336C14 22.3336 7.12003 22.3336 5.40501 21.8557C4.45786 21.5923 3.71354 20.8191 3.45999 19.8351C3 18.0533 3 14.3336 3 14.3336C3 14.3336 3 10.614 3.45999 8.83221C3.71354 7.8482 4.45786 7.07492 5.40501 6.81151C7.12003 6.33362 14 6.33362 14 6.33362C14 6.33362 20.8801 6.33362 22.595 6.81151ZM17.5134 14.3339L11.7979 17.7619V10.9059L17.5134 14.3339Z" fill="#7FFFD1"/>
</g>
</g>
<defs>
<clipPath id="clip0_6476_4067">
<rect width="22" height="16" fill="white" transform="translate(3 6.33362)"/>
</clipPath>
<clipPath id="clip1_6476_4067">
<rect width="22" height="16" fill="white" transform="translate(3 6.33362)"/>
</clipPath>
</defs>
</svg>
