<svg width="28" height="29" viewBox="0 0 28 29" fill="none" xmlns="http://www.w3.org/2000/svg">
<g clip-path="url(#clip0_6476_4049)">
<path d="M14.0029 4.70862C8.44556 4.70862 3.94043 9.04421 3.94043 14.3924C3.94043 19.2258 7.62012 23.2321 12.4307 23.9586V17.1917H9.87573V14.3924H12.4307V12.259C12.4307 9.83197 13.933 8.49136 16.2314 8.49136C17.332 8.49136 18.4839 8.6805 18.4839 8.6805V11.0636H17.2151C15.9651 11.0636 15.5752 11.8102 15.5752 12.5767V14.3924H18.366L17.9198 17.1917H15.5752V23.9586C20.3857 23.2321 24.0654 19.2258 24.0654 14.3924C24.0654 9.04421 19.5603 4.70862 14.0029 4.70862Z" fill="#7FFFD1"/>
</g>
<defs>
<clipPath id="clip0_6476_4049">
<rect width="20.125" height="19.25" fill="white" transform="translate(3.9375 4.70862)"/>
</clipPath>
</defs>
</svg>
