<svg width="229" height="104" viewBox="0 0 229 104" fill="none" xmlns="http://www.w3.org/2000/svg">
<path d="M22.25 25.5625H25.0625L26.1875 23.875L28.4375 27.25L29.5625 25.5625H31.25" stroke="#7CDCFA" stroke-width="0.75" stroke-linecap="round" stroke-linejoin="round"/>
<path d="M21.6875 23.3125C21.6875 23.2654 21.6875 23.219 21.6875 23.1719C21.6875 22.1649 22.0875 21.1991 22.7996 20.4871C23.5116 19.775 24.4774 19.375 25.4844 19.375C27.0727 19.375 28.4333 20.2405 29 21.625C29.5667 20.2405 30.9273 19.375 32.5156 19.375C33.5226 19.375 34.4884 19.775 35.2004 20.4871C35.9125 21.1991 36.3125 22.1649 36.3125 23.1719C36.3125 27.8125 29 31.75 29 31.75C29 31.75 26.0469 30.1609 23.8967 27.8125" stroke="#7CDCFA" stroke-width="0.75" stroke-linecap="round" stroke-linejoin="round"/>
<path d="M46.9851 29.5V21.3673H48.2222V24.8495H51.9793V21.3673H53.2164V29.5H51.9793V25.972H48.2222V29.5H46.9851ZM57.5788 29.6375C55.8148 29.6375 54.6922 28.3775 54.6922 26.4531C54.6922 24.5287 55.8148 23.2687 57.5444 23.2687C59.2053 23.2687 60.3393 24.4485 60.3393 26.4989V26.8082H55.9637C56.0209 27.9995 56.628 28.5951 57.5902 28.5951C58.3118 28.5951 58.7929 28.24 58.9877 27.6673L60.2477 27.7475C59.9269 28.8815 58.9304 29.6375 57.5788 29.6375ZM59.0449 25.8918C58.9762 24.8151 58.3806 24.2996 57.5444 24.2996C56.6853 24.2996 56.1011 24.8609 55.9637 25.8918H59.0449ZM63.4103 29.6375C62.1503 29.6375 61.3256 29.0304 61.3256 27.9765C61.3256 26.9342 61.9441 26.3729 63.2728 26.1095L65.369 25.7085C65.369 24.7693 64.9337 24.2996 64.0632 24.2996C63.2843 24.2996 62.849 24.6547 62.6886 25.3191L61.4286 25.2389C61.6577 24.0247 62.6085 23.2687 64.0632 23.2687C65.7126 23.2687 66.5832 24.1965 66.5832 25.7773V28.1484C66.5832 28.4462 66.6863 28.5378 66.9154 28.5378H67.133V29.5C67.0528 29.5229 66.8581 29.5344 66.6863 29.5344C65.9876 29.5344 65.5752 29.2709 65.4721 28.5607C65.1628 29.2022 64.361 29.6375 63.4103 29.6375ZM63.6165 28.6753C64.7046 28.6753 65.369 27.988 65.369 27.0144V26.6249L63.5936 26.9685C62.8605 27.106 62.5856 27.3924 62.5856 27.862C62.5856 28.3889 62.9636 28.6753 63.6165 28.6753ZM68.3252 29.5V23.4062H69.4363L69.4706 24.5631C69.6997 23.7613 70.1694 23.4062 70.9254 23.4062H71.5095V24.4944H70.9254C69.9975 24.4944 69.5394 24.9411 69.5394 25.9033V29.5H68.3252ZM75.058 29.5C73.9011 29.5 73.3628 28.996 73.3628 27.8505V24.4027H72.4349V23.4062H73.3628V21.9744H74.5769V23.4062H76.192V24.4027H74.5769V27.7589C74.5769 28.3316 74.8175 28.5035 75.3215 28.5035H76.192V29.5H75.058ZM80.2272 29.5V23.4062H81.3383L81.3726 24.5631C81.6017 23.7613 82.0713 23.4062 82.8273 23.4062H83.4115V24.4944H82.8273C81.8995 24.4944 81.4413 24.9411 81.4413 25.9033V29.5H80.2272ZM86.1963 29.6375C84.9363 29.6375 84.1116 29.0304 84.1116 27.9765C84.1116 26.9342 84.7301 26.3729 86.0589 26.1095L88.1551 25.7085C88.1551 24.7693 87.7198 24.2996 86.8492 24.2996C86.0703 24.2996 85.6351 24.6547 85.4747 25.3191L84.2147 25.2389C84.4438 24.0247 85.3945 23.2687 86.8492 23.2687C88.4987 23.2687 89.3692 24.1965 89.3692 25.7773V28.1484C89.3692 28.4462 89.4723 28.5378 89.7014 28.5378H89.9191V29.5C89.8389 29.5229 89.6441 29.5344 89.4723 29.5344C88.7736 29.5344 88.3612 29.2709 88.2581 28.5607C87.9489 29.2022 87.1471 29.6375 86.1963 29.6375ZM86.4025 28.6753C87.4907 28.6753 88.1551 27.988 88.1551 27.0144V26.6249L86.3796 26.9685C85.6465 27.106 85.3716 27.3924 85.3716 27.862C85.3716 28.3889 85.7496 28.6753 86.4025 28.6753ZM92.9558 29.5C91.7989 29.5 91.2605 28.996 91.2605 27.8505V24.4027H90.3327V23.4062H91.2605V21.9744H92.4747V23.4062H94.0898V24.4027H92.4747V27.7589C92.4747 28.3316 92.7152 28.5035 93.2192 28.5035H94.0898V29.5H92.9558ZM97.7144 29.6375C95.9504 29.6375 94.8279 28.3775 94.8279 26.4531C94.8279 24.5287 95.9504 23.2687 97.68 23.2687C99.341 23.2687 100.475 24.4485 100.475 26.4989V26.8082H96.0993C96.1566 27.9995 96.7637 28.5951 97.7259 28.5951C98.4475 28.5951 98.9286 28.24 99.1233 27.6673L100.383 27.7475C100.063 28.8815 99.066 29.6375 97.7144 29.6375ZM99.1806 25.8918C99.1119 24.8151 98.5162 24.2996 97.68 24.2996C96.821 24.2996 96.2368 24.8609 96.0993 25.8918H99.1806Z" fill="#7CDCFA"/>
<path d="M24.9484 80V66.752H21.0211V64.4742H22.6182C24.7389 64.4742 25.5505 63.7411 25.5505 61.4109H27.776V80H24.9484ZM39.2502 80.4189C34.616 80.4189 31.7098 76.7011 31.7098 70.7316C31.7098 64.7622 34.6422 60.992 39.2502 60.992C43.9105 60.992 46.8167 64.736 46.8167 70.7316C46.8167 76.6749 43.9105 80.4189 39.2502 80.4189ZM39.2502 77.8269C42.2349 77.8269 43.8844 75.3135 43.8844 70.7316C43.8844 66.1236 42.2349 63.584 39.2502 63.584C36.3178 63.584 34.6422 66.1236 34.6422 70.7316C34.6422 75.3135 36.3178 77.8269 39.2502 77.8269ZM56.0775 80.4189C51.8099 80.4189 48.9037 78.5076 48.9037 74.9207C48.9037 72.4858 50.2913 70.784 52.5692 69.9985C50.8412 69.344 49.7939 68.0349 49.7939 66.0975C49.7939 63.1389 52.1764 60.992 56.0775 60.992C59.9524 60.992 62.335 63.1389 62.335 66.0975C62.335 68.0611 61.2877 69.3178 59.5597 69.9985C61.8375 70.7578 63.2513 72.4858 63.2513 74.9207C63.2513 78.5076 60.319 80.4189 56.0775 80.4189ZM56.0775 77.8269C58.6433 77.8269 60.2928 76.7796 60.2928 74.6327C60.2928 72.6167 58.9052 71.2815 56.0775 71.2815C53.2237 71.2815 51.8361 72.6167 51.8361 74.6327C51.8361 76.7796 53.4855 77.8269 56.0775 77.8269ZM56.0775 68.9513C58.1983 68.9513 59.4288 68.0611 59.4288 66.2284C59.4288 64.6051 58.2506 63.5578 56.0775 63.5578C53.8783 63.5578 52.7001 64.6051 52.7001 66.2284C52.7001 68.0611 53.9306 68.9513 56.0775 68.9513Z" fill="#7CDCFA"/>
<path d="M70.269 80V70.7055H72.8872C73.9083 70.7055 74.6763 70.9324 75.1912 71.3862C75.7148 71.84 75.9766 72.4596 75.9766 73.2451C75.9766 73.6291 75.885 73.9738 75.7017 74.2793C75.5185 74.5847 75.261 74.8247 74.9294 74.9993C74.5977 75.1738 74.2137 75.2611 73.7774 75.2611V75.1825C74.3185 75.1825 74.781 75.2742 75.165 75.4575C75.5577 75.6407 75.8545 75.8982 76.0552 76.2298C76.2646 76.5615 76.3694 76.9542 76.3694 77.408C76.3694 78.2109 76.0901 78.8436 75.5315 79.3062C74.973 79.7687 74.2006 80 73.2145 80H70.269ZM71.3948 78.9004H73.2275C73.8995 78.9004 74.3926 78.7695 74.7068 78.5076C75.0297 78.2458 75.1912 77.8793 75.1912 77.408C75.1912 76.9105 75.0254 76.5222 74.6937 76.2429C74.3621 75.9636 73.8734 75.824 73.2275 75.824H71.3948V78.9004ZM71.3948 74.7244H72.9395C73.5854 74.7244 74.0566 74.5978 74.3534 74.3447C74.6501 74.0916 74.7985 73.7338 74.7985 73.2713C74.7985 72.8 74.6501 72.4378 74.3534 72.1847C74.0566 71.9316 73.5854 71.8051 72.9395 71.8051H71.3948V74.7244ZM78.1184 80V70.7055H80.9461C81.5919 70.7055 82.1548 70.8189 82.6348 71.0458C83.1148 71.2727 83.4857 71.6 83.7475 72.0276C84.0093 72.4465 84.1403 72.9527 84.1403 73.5462C84.1403 74.1396 84.0093 74.6502 83.7475 75.0778C83.4857 75.4967 83.1148 75.8196 82.6348 76.0465C82.1548 76.2735 81.5919 76.3869 80.9461 76.3869H79.2443V80H78.1184ZM79.2443 75.2873H80.8152C81.5483 75.2873 82.0893 75.1389 82.4384 74.8422C82.7875 74.5367 82.9621 74.1047 82.9621 73.5462C82.9621 72.9789 82.7875 72.5469 82.4384 72.2502C82.0893 71.9535 81.5483 71.8051 80.8152 71.8051H79.2443V75.2873ZM88.2195 78.9527L86.4653 71.7527H86.57V80H85.4442V70.7055H87.146L88.9788 78.3505H88.4551L90.2879 70.7055H91.9897V80H90.8639V71.7527H90.9686L89.2144 78.9527H88.2195Z" fill="#7CDCFA"/>
<path d="M136 74.3038L139.714 69.6787C139.799 69.5725 139.873 69.4579 139.935 69.3366L141.39 66.4893C142.214 64.8767 144.586 65.1021 145.092 66.841L147.415 74.8323C147.488 75.0851 147.611 75.3209 147.776 75.5261L148.851 76.8647C149.885 78.1528 151.947 77.7026 152.35 76.1006L153.374 72.0312C153.857 70.1115 156.583 70.1066 157.073 72.0246V72.0246C157.57 73.9706 160.35 73.9264 160.785 71.9655L162.324 65.0271C162.611 63.7351 164.051 63.0728 165.218 63.6959L166.405 64.329C166.624 64.4462 166.864 64.5214 167.111 64.5507L169.906 64.8822C170.342 64.934 170.784 64.8406 171.162 64.6164L173.401 63.2885C174.03 62.9155 174.812 62.9155 175.441 63.2885L177.614 64.5769C178.032 64.8251 178.346 65.2174 178.496 65.6802L180.494 71.8406C181.06 73.5856 183.48 73.7117 184.224 72.0349L185.647 68.8298C185.841 68.3924 186.185 68.0391 186.617 67.834L189.383 66.5222C189.65 66.3951 189.943 66.3291 190.24 66.3291H192.36C193.136 66.3291 193.842 66.778 194.171 67.4808L195.854 71.0728C196.538 72.5342 198.582 72.6248 199.394 71.2297L199.965 70.2475C200.638 69.0894 202.237 68.9079 203.153 69.8855L203.411 70.1604C204.299 71.1086 205.841 70.9714 206.548 69.8813L209 66.1013" stroke="#7CDCFA"/>
</svg>
