<svg width="32" height="32" viewBox="0 0 32 32" fill="none" xmlns="http://www.w3.org/2000/svg">
<path d="M12 14H20" stroke="#7CDCFA" stroke-width="1.25" stroke-linecap="round" stroke-linejoin="round"/>
<path d="M12 18H20" stroke="#7CDCFA" stroke-width="1.25" stroke-linecap="round" stroke-linejoin="round"/>
<path d="M9.99109 26.3887C12.5118 27.8475 15.4769 28.3399 18.3338 27.774C21.1907 27.2081 23.7443 25.6225 25.5184 23.3129C27.2926 21.0032 28.1663 18.1272 27.9766 15.221C27.7869 12.3148 26.5467 9.57679 24.4873 7.51742C22.428 5.45805 19.6899 4.2179 16.7837 4.02819C13.8775 3.83847 11.0015 4.71215 8.69189 6.48632C6.38228 8.26049 4.7967 10.8141 4.23078 13.6709C3.66486 16.5278 4.15723 19.493 5.61609 22.0137L4.05234 26.6824C3.99358 26.8586 3.98505 27.0477 4.02771 27.2285C4.07037 27.4092 4.16254 27.5745 4.29387 27.7059C4.42521 27.8372 4.59052 27.9294 4.77129 27.972C4.95206 28.0147 5.14114 28.0062 5.31734 27.9474L9.99109 26.3887Z" stroke="#7CDCFA" stroke-width="1.25" stroke-linecap="round" stroke-linejoin="round"/>
</svg>
