<svg width="25" height="25" viewBox="0 0 25 25" fill="none" xmlns="http://www.w3.org/2000/svg">
<path d="M8.40007 16.5994L3.23539 14.6963C3.09298 14.6438 2.9701 14.5488 2.88332 14.4243C2.79653 14.2997 2.75 14.1516 2.75 13.9998C2.75 13.848 2.79653 13.6998 2.88332 13.5753C2.9701 13.4507 3.09298 13.3558 3.23539 13.3032L8.40007 11.4001L10.3032 6.23539C10.3558 6.09298 10.4507 5.9701 10.5753 5.88332C10.6998 5.79653 10.848 5.75 10.9998 5.75C11.1516 5.75 11.2997 5.79653 11.4243 5.88332C11.5488 5.9701 11.6438 6.09298 11.6963 6.23539L13.5994 11.4001L18.7641 13.3032C18.9065 13.3558 19.0294 13.4507 19.1162 13.5753C19.203 13.6998 19.2495 13.848 19.2495 13.9998C19.2495 14.1516 19.203 14.2997 19.1162 14.4243C19.0294 14.5488 18.9065 14.6438 18.7641 14.6963L13.5994 16.5994L11.6963 21.7641C11.6438 21.9065 11.5488 22.0294 11.4243 22.1162C11.2997 22.203 11.1516 22.2495 10.9998 22.2495C10.848 22.2495 10.6998 22.203 10.5753 22.1162C10.4507 22.0294 10.3558 21.9065 10.3032 21.7641L8.40007 16.5994Z" stroke="#7CDCFA" stroke-width="1.25" stroke-linecap="round" stroke-linejoin="round"/>
<path d="M17 2V6.5" stroke="#7CDCFA" stroke-width="1.25" stroke-linecap="round" stroke-linejoin="round"/>
<path d="M21.5 7.25V10.25" stroke="#7CDCFA" stroke-width="1.25" stroke-linecap="round" stroke-linejoin="round"/>
<path d="M14.75 4.25H19.25" stroke="#7CDCFA" stroke-width="1.25" stroke-linecap="round" stroke-linejoin="round"/>
<path d="M20 8.75H23" stroke="#7CDCFA" stroke-width="1.25" stroke-linecap="round" stroke-linejoin="round"/>
</svg>
