<svg width="28" height="29" viewBox="0 0 28 29" fill="none" xmlns="http://www.w3.org/2000/svg">
<g clip-path="url(#clip0_6476_4063)">
<path d="M21.4532 5.00037H6.54963C6.30198 5.00079 6.05682 5.04941 5.82818 5.14347C5.59954 5.23752 5.39188 5.37516 5.21706 5.54853C5.04225 5.72189 4.90369 5.92759 4.80931 6.15388C4.71493 6.38016 4.66658 6.6226 4.667 6.86735V21.8011C4.66615 22.0461 4.7142 22.2888 4.8084 22.5154C4.9026 22.742 5.0411 22.948 5.21598 23.1216C5.39085 23.2953 5.59866 23.4331 5.82751 23.5272C6.05636 23.6214 6.30175 23.67 6.54963 23.6702H21.4532C21.7007 23.6698 21.9457 23.6212 22.1743 23.5272C22.4028 23.4332 22.6103 23.2957 22.785 23.1224C22.9597 22.9491 23.0982 22.7435 23.1925 22.5174C23.2869 22.2912 23.3352 22.0489 23.3348 21.8043V6.86735C23.3356 6.37324 23.1379 5.899 22.7851 5.54891C22.4323 5.19881 21.9532 5.0015 21.4532 5.00037V5.00037ZM10.6569 19.771H8.14563V11.7859H10.6569V19.771ZM9.38552 10.8063C8.59186 10.8063 8.08266 10.2505 8.08266 9.56483C8.0794 8.8631 8.60815 8.32661 9.42026 8.32661C10.2324 8.32661 10.7231 8.8631 10.7416 9.56697C10.7394 10.2505 10.228 10.8063 9.38552 10.8063ZM19.8268 19.771H17.3156V15.345C17.3156 14.3171 16.9519 13.6143 16.0431 13.6143C15.3493 13.6143 14.9368 14.0885 14.7544 14.5456C14.6901 14.7459 14.6621 14.9559 14.6719 15.1658V19.771H12.1606V14.3353C12.1606 13.3396 12.1269 12.5112 12.0944 11.788H14.2756L14.3907 12.8986H14.4406C14.7663 12.376 15.5806 11.611 16.9377 11.611C18.5902 11.611 19.829 12.7054 19.829 15.0563L19.8268 19.771Z" fill="#7FFFD1"/>
</g>
<defs>
<clipPath id="clip0_6476_4063">
<rect width="18.6667" height="18.6667" fill="white" transform="translate(4.66699 5.00037)"/>
</clipPath>
</defs>
</svg>
