<svg width="32" height="32" viewBox="0 0 32 32" fill="none" xmlns="http://www.w3.org/2000/svg">
<path d="M12 20L20 12" stroke="#7CDCFA" stroke-width="1.5" stroke-linecap="round" stroke-linejoin="round"/>
<path d="M14 9.51396L17.7575 5.76396C18.8858 4.65388 20.4071 4.03462 21.9899 4.04107C23.5727 4.04751 25.0889 4.67914 26.2081 5.79837C27.3273 6.91761 27.959 8.43376 27.9654 10.0166C27.9718 11.5994 27.3526 13.1207 26.2425 14.249L22.485 18.0002" stroke="#7CDCFA" stroke-width="1.5" stroke-linecap="round" stroke-linejoin="round"/>
<path d="M9.51396 14L5.76396 17.7575C4.65388 18.8858 4.03462 20.4071 4.04107 21.9899C4.04751 23.5727 4.67914 25.0889 5.79837 26.2081C6.91761 27.3273 8.43376 27.959 10.0166 27.9654C11.5994 27.9718 13.1207 27.3526 14.249 26.2425L18.0002 22.485" stroke="#7CDCFA" stroke-width="1.5" stroke-linecap="round" stroke-linejoin="round"/>
</svg>
