<svg width="338" height="122" viewBox="0 0 338 122" fill="none" xmlns="http://www.w3.org/2000/svg">
<path d="M21.08 33V24.48H23.48C24.416 24.48 25.12 24.688 25.592 25.104C26.072 25.52 26.312 26.088 26.312 26.808C26.312 27.16 26.228 27.476 26.06 27.756C25.892 28.036 25.656 28.256 25.352 28.416C25.048 28.576 24.696 28.656 24.296 28.656V28.584C24.792 28.584 25.216 28.668 25.568 28.836C25.928 29.004 26.2 29.24 26.384 29.544C26.576 29.848 26.672 30.208 26.672 30.624C26.672 31.36 26.416 31.94 25.904 32.364C25.392 32.788 24.684 33 23.78 33H21.08ZM22.112 31.992H23.792C24.408 31.992 24.86 31.872 25.148 31.632C25.444 31.392 25.592 31.056 25.592 30.624C25.592 30.168 25.44 29.812 25.136 29.556C24.832 29.3 24.384 29.172 23.792 29.172H22.112V31.992ZM22.112 28.164H23.528C24.12 28.164 24.552 28.048 24.824 27.816C25.096 27.584 25.232 27.256 25.232 26.832C25.232 26.4 25.096 26.068 24.824 25.836C24.552 25.604 24.12 25.488 23.528 25.488H22.112V28.164ZM28.2753 33V24.48H33.4593V25.488H29.3073V28.236H33.3153V29.22H29.3073V31.992H33.5553V33H28.2753ZM37.9666 33.192C37.3666 33.192 36.8306 33.028 36.3586 32.7C35.8946 32.364 35.5266 31.868 35.2546 31.212C34.9826 30.548 34.8466 29.728 34.8466 28.752C34.8466 27.832 34.9706 27.04 35.2186 26.376C35.4746 25.712 35.8386 25.2 36.3106 24.84C36.7826 24.472 37.3506 24.288 38.0146 24.288C38.5346 24.288 38.9946 24.404 39.3946 24.636C39.8026 24.868 40.1426 25.192 40.4146 25.608C40.6866 26.016 40.8826 26.488 41.0026 27.024L39.9226 27.096C39.7866 26.568 39.5586 26.136 39.2386 25.8C38.9266 25.464 38.5186 25.296 38.0146 25.296C37.5746 25.296 37.1986 25.432 36.8866 25.704C36.5746 25.968 36.3346 26.36 36.1666 26.88C36.0066 27.392 35.9266 28.016 35.9266 28.752C35.9266 29.48 36.0106 30.1 36.1786 30.612C36.3466 31.124 36.5866 31.516 36.8986 31.788C37.2186 32.052 37.6066 32.184 38.0626 32.184C38.4706 32.184 38.8186 32.08 39.1066 31.872C39.4026 31.656 39.6346 31.36 39.8026 30.984C39.9706 30.6 40.0626 30.164 40.0786 29.676H38.0386V28.692H41.0386V33H40.0786L40.0306 30.984L40.3186 31.08C40.2066 31.488 40.0506 31.852 39.8506 32.172C39.6586 32.492 39.4066 32.744 39.0946 32.928C38.7906 33.104 38.4146 33.192 37.9666 33.192ZM42.5459 33V31.992H44.6699V25.488H42.5459V24.48H47.8259V25.488H45.7019V31.992H47.8259V33H42.5459ZM49.6213 33V24.48H51.0853L54.1093 31.824V24.48H55.1413V33H53.6773L50.6533 25.656V33H49.6213ZM56.8166 33V24.48H58.2806L61.3046 31.824V24.48H62.3366V33H60.8726L57.8486 25.656V33H56.8166ZM64.2519 33V24.48H69.4359V25.488H65.2839V28.236H69.2919V29.22H65.2839V31.992H69.5319V33H64.2519ZM71.2072 33V24.48H73.7992C74.6952 24.48 75.4032 24.708 75.9232 25.164C76.4432 25.612 76.7032 26.232 76.7032 27.024C76.7032 27.424 76.6112 27.78 76.4272 28.092C76.2432 28.396 76.0072 28.636 75.7192 28.812C75.4312 28.988 75.1352 29.088 74.8312 29.112L74.7832 28.968C75.3512 29 75.7752 29.136 76.0552 29.376C76.3432 29.616 76.5112 30.008 76.5592 30.552L76.7752 33H75.7432L75.5392 30.684C75.5152 30.42 75.4512 30.208 75.3472 30.048C75.2512 29.88 75.0952 29.76 74.8792 29.688C74.6712 29.608 74.3832 29.568 74.0152 29.568H72.2392V33H71.2072ZM72.2392 28.56H73.7992C74.3912 28.56 74.8432 28.428 75.1552 28.164C75.4672 27.892 75.6232 27.512 75.6232 27.024C75.6232 26.528 75.4672 26.148 75.1552 25.884C74.8432 25.62 74.3912 25.488 73.7992 25.488H72.2392V28.56Z" fill="#7CDCFA"/>
<path d="M260.75 33L263.342 24.48H264.734L267.326 33H266.222L264.038 25.416L261.854 33H260.75ZM262.058 30.576L262.418 29.568H265.658L266.018 30.576H262.058ZM268.713 33V24.48H270.729C271.465 24.48 272.105 24.648 272.649 24.984C273.201 25.312 273.625 25.796 273.921 26.436C274.225 27.068 274.377 27.84 274.377 28.752C274.377 29.664 274.225 30.436 273.921 31.068C273.625 31.7 273.201 32.18 272.649 32.508C272.105 32.836 271.465 33 270.729 33H268.713ZM269.745 31.992H270.669C271.501 31.992 272.145 31.724 272.601 31.188C273.065 30.644 273.297 29.832 273.297 28.752C273.297 27.672 273.065 26.86 272.601 26.316C272.145 25.764 271.501 25.488 270.669 25.488H269.745V31.992ZM277.756 33L275.188 24.48H276.292L278.572 32.328H278.284L280.564 24.48H281.668L279.1 33H277.756ZM282.335 33L284.927 24.48H286.319L288.911 33H287.807L285.623 25.416L283.439 33H282.335ZM283.643 30.576L284.003 29.568H287.243L287.603 30.576H283.643ZM290.059 33V24.48H291.523L294.547 31.824V24.48H295.579V33H294.115L291.091 25.656V33H290.059ZM300.038 33.192C299.358 33.192 298.782 33.012 298.31 32.652C297.838 32.292 297.478 31.78 297.23 31.116C296.99 30.452 296.87 29.664 296.87 28.752C296.87 27.832 296.99 27.04 297.23 26.376C297.478 25.712 297.838 25.2 298.31 24.84C298.782 24.472 299.358 24.288 300.038 24.288C300.79 24.288 301.43 24.536 301.958 25.032C302.486 25.52 302.838 26.204 303.014 27.084L301.91 27.156C301.774 26.54 301.538 26.076 301.202 25.764C300.874 25.452 300.486 25.296 300.038 25.296C299.582 25.296 299.198 25.432 298.886 25.704C298.582 25.968 298.35 26.36 298.19 26.88C298.03 27.392 297.95 28.016 297.95 28.752C297.95 29.48 298.03 30.1 298.19 30.612C298.35 31.124 298.582 31.516 298.886 31.788C299.198 32.052 299.582 32.184 300.038 32.184C300.534 32.184 300.954 32.012 301.298 31.668C301.642 31.324 301.874 30.812 301.994 30.132L303.086 30.192C302.934 31.128 302.59 31.864 302.054 32.4C301.518 32.928 300.846 33.192 300.038 33.192ZM304.689 33V24.48H309.873V25.488H305.721V28.236H309.729V29.22H305.721V31.992H309.969V33H304.689ZM311.885 33V24.48H313.901C314.637 24.48 315.277 24.648 315.821 24.984C316.373 25.312 316.797 25.796 317.093 26.436C317.397 27.068 317.549 27.84 317.549 28.752C317.549 29.664 317.397 30.436 317.093 31.068C316.797 31.7 316.373 32.18 315.821 32.508C315.277 32.836 314.637 33 313.901 33H311.885ZM312.917 31.992H313.841C314.673 31.992 315.317 31.724 315.773 31.188C316.237 30.644 316.469 29.832 316.469 28.752C316.469 27.672 316.237 26.86 315.773 26.316C315.317 25.764 314.673 25.488 313.841 25.488H312.917V31.992Z" fill="#7CDCFA"/>
<circle cx="196.504" cy="58.4458" r="16.4458" fill="#7CDCFA" fill-opacity="0.08"/>
<path d="M51.501 58.7183L318 58.7185" stroke="#7CDCFA" stroke-opacity="0.08" stroke-width="5.42687" stroke-linecap="round"/>
<circle cx="196.505" cy="58.4455" r="11.3249" fill="#7CDCFA" fill-opacity="0.08"/>
<line x1="25.6553" y1="58.0585" x2="197.772" y2="58.0585" stroke="#7CDCFA" stroke-width="5.88295" stroke-linecap="round"/>
<circle cx="196.504" cy="58.4453" r="6.25241" fill="#7CDCFA"/>
<rect x="20" y="78.8916" width="77" height="23" rx="6" fill="#7CDCFA" fill-opacity="0.08"/>
<path d="M28.92 93.8916V86.7916H29.78V93.0516H33.33V93.8916H28.92ZM36.3102 94.0116C34.8402 94.0116 33.8802 92.9316 33.8802 91.2416C33.8802 89.5516 34.8402 88.4716 36.3102 88.4716C37.7702 88.4716 38.7302 89.5516 38.7302 91.2416C38.7302 92.9316 37.7702 94.0116 36.3102 94.0116ZM36.3102 93.2116C37.2802 93.2116 37.8502 92.4716 37.8502 91.2416C37.8502 90.0116 37.2802 89.2716 36.3102 89.2716C35.3302 89.2716 34.7602 90.0116 34.7602 91.2416C34.7602 92.4716 35.3302 93.2116 36.3102 93.2116ZM40.8073 93.8916L39.1673 88.5916H40.0873L41.3273 93.0116L42.5873 88.5916H43.4873L44.7473 93.0116L45.9973 88.5916H46.9173L45.2773 93.8916H44.2173L43.0373 89.8616L41.8573 93.8916H40.8073ZM50.4406 93.8916V88.5916H51.2806V93.8916H50.4406ZM50.4206 87.7616V86.7816H51.3006V87.7616H50.4206ZM52.7355 93.8916V88.5916H53.5055L53.5255 89.5416C53.8055 88.8116 54.4255 88.4716 55.1555 88.4716C56.3655 88.4716 56.9455 89.3616 56.9455 90.4816V93.8916H56.1055V90.7216C56.1055 89.7416 55.7755 89.2116 54.9755 89.2116C54.1555 89.2116 53.5755 89.7416 53.5755 90.7216V93.8916H52.7355ZM60.1834 93.8916C59.2234 93.8916 58.7734 93.4716 58.7734 92.5316V89.3316H57.9934V88.5916H58.7734V87.3516H59.6134V88.5916H61.0234V89.3316H59.6134V92.5116C59.6134 92.9916 59.8234 93.1516 60.2634 93.1516H61.0234V93.8916H60.1834ZM64.1422 94.0116C62.6422 94.0116 61.7122 92.9216 61.7122 91.2416C61.7122 89.5616 62.6422 88.4716 64.1022 88.4716C65.4822 88.4716 66.4422 89.4716 66.4422 91.2516V91.5016H62.5922C62.6522 92.6416 63.2222 93.2116 64.1422 93.2116C64.8322 93.2116 65.2822 92.8616 65.4622 92.3216L66.3622 92.3916C66.0822 93.3416 65.2622 94.0116 64.1422 94.0116ZM65.5222 90.7616C65.4422 89.7416 64.8822 89.2716 64.1022 89.2716C63.2822 89.2716 62.7322 89.7816 62.5922 90.7616H65.5222ZM67.6672 93.8916V88.5916H68.4372L68.4572 89.5416C68.7372 88.8116 69.3572 88.4716 70.0872 88.4716C71.2972 88.4716 71.8772 89.3616 71.8772 90.4816V93.8916H71.0372V90.7216C71.0372 89.7416 70.7072 89.2116 69.9072 89.2116C69.0872 89.2116 68.5072 89.7416 68.5072 90.7216V93.8916H67.6672ZM75.2913 94.0116C73.8713 94.0116 73.0813 93.2616 73.0013 92.2216L73.8813 92.1616C73.9813 92.8016 74.3913 93.2116 75.2913 93.2116C76.0113 93.2116 76.4813 92.9916 76.4813 92.4716C76.4813 92.0516 76.2713 91.8716 75.1313 91.6716C73.6113 91.4016 73.1313 90.9316 73.1313 90.0916C73.1313 89.1516 73.8512 88.4716 75.1313 88.4716C76.4213 88.4716 77.1013 89.2516 77.2613 90.1716L76.3813 90.2316C76.2613 89.6716 75.8413 89.2716 75.1213 89.2716C74.3613 89.2716 74.0113 89.6016 74.0113 90.0516C74.0113 90.5716 74.3513 90.7716 75.2913 90.9316C76.9113 91.2116 77.3613 91.6316 77.3613 92.4716C77.3613 93.4516 76.4613 94.0116 75.2913 94.0116ZM78.4387 93.8916V88.5916H79.2787V93.8916H78.4387ZM78.4187 87.7616V86.7816H79.2987V87.7616H78.4187ZM82.4197 93.8916C81.4597 93.8916 81.0097 93.4716 81.0097 92.5316V89.3316H80.2297V88.5916H81.0097V87.3516H81.8497V88.5916H83.2597V89.3316H81.8497V92.5116C81.8497 92.9916 82.0597 93.1516 82.4997 93.1516H83.2597V93.8916H82.4197ZM84.655 95.3916V94.6516H85.265C85.635 94.6516 85.785 94.5416 85.885 94.2916L86.075 93.7916H85.785L83.845 88.5916H84.765L86.345 93.0116L87.855 88.5916H88.775L86.625 94.5616C86.425 95.1316 86.055 95.3916 85.345 95.3916H84.655Z" fill="#7CDCFA"/>
<rect x="239" y="78.8916" width="79" height="23" rx="6" fill="#7CDCFA" fill-opacity="0.08"/>
<path d="M247.92 93.8916V86.7916H248.78V89.9016H252.35V86.7916H253.21V93.8916H252.35V90.7416H248.78V93.8916H247.92ZM254.675 93.8916V88.5916H255.515V93.8916H254.675ZM254.655 87.7616V86.7816H255.535V87.7616H254.655ZM259.156 95.5116C258.016 95.5116 257.156 94.9016 256.936 93.9716L257.816 93.9116C257.976 94.4116 258.336 94.7116 259.156 94.7116C260.116 94.7116 260.646 94.3316 260.646 93.5516V92.6916C260.386 93.2516 259.786 93.6116 259.096 93.6116C257.746 93.6116 256.786 92.5516 256.786 91.0416C256.786 89.5316 257.726 88.4716 259.056 88.4716C259.796 88.4716 260.446 88.8416 260.686 89.4316V88.5916H261.486V93.5316C261.486 94.7716 260.616 95.5116 259.156 95.5116ZM259.136 92.8116C260.046 92.8116 260.636 92.1316 260.646 91.0416C260.666 89.9516 260.056 89.2716 259.136 89.2716C258.206 89.2716 257.666 89.9516 257.666 91.0416C257.666 92.1316 258.226 92.8116 259.136 92.8116ZM262.937 93.8916V86.7916H263.777V89.4216C264.047 88.7716 264.647 88.4716 265.377 88.4716C266.517 88.4716 267.147 89.3016 267.147 90.4816V93.8916H266.307V90.7216C266.307 89.7016 265.937 89.2116 265.197 89.2116C264.337 89.2116 263.777 89.7516 263.777 90.7316V93.8916H262.937ZM271.247 93.8916V88.5916H272.087V93.8916H271.247ZM271.227 87.7616V86.7816H272.107V87.7616H271.227ZM273.542 93.8916V88.5916H274.312L274.332 89.5416C274.612 88.8116 275.232 88.4716 275.962 88.4716C277.172 88.4716 277.752 89.3616 277.752 90.4816V93.8916H276.912V90.7216C276.912 89.7416 276.582 89.2116 275.782 89.2116C274.962 89.2116 274.382 89.7416 274.382 90.7216V93.8916H273.542ZM280.99 93.8916C280.03 93.8916 279.58 93.4716 279.58 92.5316V89.3316H278.8V88.5916H279.58V87.3516H280.42V88.5916H281.83V89.3316H280.42V92.5116C280.42 92.9916 280.63 93.1516 281.07 93.1516H281.83V93.8916H280.99ZM284.949 94.0116C283.449 94.0116 282.519 92.9216 282.519 91.2416C282.519 89.5616 283.449 88.4716 284.909 88.4716C286.289 88.4716 287.249 89.4716 287.249 91.2516V91.5016H283.399C283.459 92.6416 284.029 93.2116 284.949 93.2116C285.639 93.2116 286.089 92.8616 286.269 92.3216L287.169 92.3916C286.889 93.3416 286.069 94.0116 284.949 94.0116ZM286.329 90.7616C286.249 89.7416 285.689 89.2716 284.909 89.2716C284.089 89.2716 283.539 89.7816 283.399 90.7616H286.329ZM288.474 93.8916V88.5916H289.244L289.264 89.5416C289.544 88.8116 290.164 88.4716 290.894 88.4716C292.104 88.4716 292.684 89.3616 292.684 90.4816V93.8916H291.844V90.7216C291.844 89.7416 291.514 89.2116 290.714 89.2116C289.894 89.2116 289.314 89.7416 289.314 90.7216V93.8916H288.474ZM296.098 94.0116C294.678 94.0116 293.888 93.2616 293.808 92.2216L294.688 92.1616C294.788 92.8016 295.198 93.2116 296.098 93.2116C296.818 93.2116 297.288 92.9916 297.288 92.4716C297.288 92.0516 297.078 91.8716 295.938 91.6716C294.418 91.4016 293.938 90.9316 293.938 90.0916C293.938 89.1516 294.658 88.4716 295.938 88.4716C297.228 88.4716 297.908 89.2516 298.068 90.1716L297.188 90.2316C297.068 89.6716 296.648 89.2716 295.928 89.2716C295.168 89.2716 294.818 89.6016 294.818 90.0516C294.818 90.5716 295.158 90.7716 296.098 90.9316C297.718 91.2116 298.168 91.6316 298.168 92.4716C298.168 93.4516 297.268 94.0116 296.098 94.0116ZM299.245 93.8916V88.5916H300.085V93.8916H299.245ZM299.225 87.7616V86.7816H300.105V87.7616H299.225ZM303.226 93.8916C302.266 93.8916 301.816 93.4716 301.816 92.5316V89.3316H301.036V88.5916H301.816V87.3516H302.656V88.5916H304.066V89.3316H302.656V92.5116C302.656 92.9916 302.866 93.1516 303.306 93.1516H304.066V93.8916H303.226ZM305.462 95.3916V94.6516H306.072C306.442 94.6516 306.592 94.5416 306.692 94.2916L306.882 93.7916H306.592L304.652 88.5916H305.572L307.152 93.0116L308.662 88.5916H309.582L307.432 94.5616C307.232 95.1316 306.862 95.3916 306.152 95.3916H305.462Z" fill="#7CDCFA"/>
</svg>
