<svg width="96" height="31" viewBox="0 0 96 31" fill="none" xmlns="http://www.w3.org/2000/svg">
<path d="M29.0848 15.4999C21.0545 15.4999 14.5424 22.0121 14.5424 30.0423C14.5424 22.0121 8.03023 15.4999 0 15.4999C8.03023 15.4999 14.5424 8.98775 14.5424 0.95752C14.5424 8.98775 21.0545 15.4999 29.0848 15.4999Z" fill="#7FFFD1"/>
<path d="M88.5778 24.2209C85.9357 24.2209 84.2783 22.9478 84.2783 20.7621C84.2783 18.6003 85.5033 17.3993 88.2896 16.8709L92.8052 16.0302C92.8052 13.8925 91.7964 12.8356 89.7788 12.8356C88.0013 12.8356 87.0165 13.6523 86.6322 15.1175L84.4945 14.9493C84.9749 12.5474 86.8964 10.9141 89.7788 10.9141C93.0454 10.9141 94.8229 12.8837 94.8229 16.1023V21.3625C94.8229 21.939 95.015 22.1552 95.4954 22.1552H95.9998V23.9326C95.8557 23.9566 95.5435 23.9807 95.2312 23.9807C93.694 23.9807 92.9974 23.3802 92.8293 21.963C92.2048 23.2841 90.4513 24.2209 88.5778 24.2209ZM88.77 22.4434C91.316 22.4434 92.8052 20.8101 92.8052 18.6964V17.7836L88.6739 18.5523C86.9445 18.8645 86.392 19.513 86.392 20.5699C86.392 21.7709 87.2808 22.4434 88.77 22.4434Z" fill="#F5F6F6"/>
<path d="M75.9053 23.933L71.2695 11.2026H73.4793L77.1783 21.8673L80.8773 11.2026H83.0871L78.4514 23.933H75.9053Z" fill="#F5F6F6"/>
<path d="M64.407 24.2209C60.8762 24.2209 58.5703 21.6268 58.5703 17.5675C58.5703 13.5082 60.8762 10.9141 64.407 10.9141C67.9139 10.9141 70.2198 13.5082 70.2198 17.5675C70.2198 21.6268 67.9139 24.2209 64.407 24.2209ZM64.407 22.2993C66.7369 22.2993 68.1061 20.5219 68.1061 17.5675C68.1061 14.6131 66.7369 12.8356 64.407 12.8356C62.0531 12.8356 60.684 14.6131 60.684 17.5675C60.684 20.5219 62.0531 22.2993 64.407 22.2993Z" fill="#F5F6F6"/>
<path d="M38.5869 23.9327V6.87891H41.4693L46.9217 21.6749L52.3501 6.87891H55.2324V23.9327H53.1667V10.722L48.2908 23.9327H45.5285L40.6526 10.722V23.9327H38.5869Z" fill="#F5F6F6"/>
</svg>
