<svg width="32" height="32" viewBox="0 0 32 32" fill="none" xmlns="http://www.w3.org/2000/svg">
<path d="M22.5 5H27V9.5" stroke="#7CDCFA" stroke-width="1.25" stroke-linecap="round" stroke-linejoin="round"/>
<path d="M22.5 27H27V22.5" stroke="#7CDCFA" stroke-width="1.25" stroke-linecap="round" stroke-linejoin="round"/>
<path d="M9.5 27H5V22.5" stroke="#7CDCFA" stroke-width="1.25" stroke-linecap="round" stroke-linejoin="round"/>
<path d="M9.5 5H5V9.5" stroke="#7CDCFA" stroke-width="1.25" stroke-linecap="round" stroke-linejoin="round"/>
<path d="M16 18C18.2091 18 20 16.2091 20 14C20 11.7909 18.2091 10 16 10C13.7909 10 12 11.7909 12 14C12 16.2091 13.7909 18 16 18Z" stroke="#7CDCFA" stroke-width="1.25" stroke-linecap="round" stroke-linejoin="round"/>
<path d="M10 21C10.6986 20.0685 11.6045 19.3125 12.6459 18.7918C13.6873 18.2711 14.8357 18 16 18C17.1643 18 18.3127 18.2711 19.3541 18.7918C20.3955 19.3125 21.3014 20.0685 22 21" stroke="#7CDCFA" stroke-width="1.25" stroke-linecap="round" stroke-linejoin="round"/>
</svg>
