<svg width="253" height="148" viewBox="0 0 253 148" fill="none" xmlns="http://www.w3.org/2000/svg">
<path d="M34 43.5C26.5442 43.5 20.5 37.4558 20.5 30C20.5 22.5442 26.5442 16.5 34 16.5C41.4558 16.5 47.5 22.5442 47.5 30C47.5 37.4558 41.4558 43.5 34 43.5Z" stroke="#7CDCFA" stroke-opacity="0.16"/>
<path d="M35.4999 27.375C35.8708 27.375 36.2333 27.265 36.5416 27.059C36.85 26.853 37.0903 26.5601 37.2322 26.2175C37.3741 25.8749 37.4112 25.4979 37.3389 25.1342C37.2665 24.7705 37.088 24.4364 36.8257 24.1742C36.5635 23.912 36.2294 23.7334 35.8657 23.661C35.502 23.5887 35.125 23.6258 34.7824 23.7677C34.4398 23.9096 34.1469 24.15 33.9409 24.4583C33.7349 24.7666 33.6249 25.1292 33.6249 25.5C33.6249 25.9973 33.8225 26.4742 34.1741 26.8258C34.5257 27.1775 35.0026 27.375 35.4999 27.375ZM35.4999 24.375C35.7224 24.375 35.9399 24.441 36.1249 24.5646C36.3099 24.6882 36.4541 24.8639 36.5393 25.0695C36.6244 25.275 36.6467 25.5012 36.6033 25.7195C36.5599 25.9377 36.4527 26.1382 36.2954 26.2955C36.1381 26.4528 35.9376 26.56 35.7194 26.6034C35.5012 26.6468 35.275 26.6245 35.0694 26.5394C34.8638 26.4542 34.6881 26.31 34.5645 26.125C34.4409 25.94 34.3749 25.7225 34.3749 25.5C34.3749 25.2016 34.4934 24.9155 34.7044 24.7045C34.9154 24.4935 35.2015 24.375 35.4999 24.375ZM39.6555 30.6788C39.6187 30.6956 39.2074 30.8744 38.4755 30.8744C37.6093 30.8744 36.2943 30.6244 34.6174 29.5619C34.3488 30.3641 33.9829 31.1304 33.528 31.8438C34.1174 32.0175 34.903 32.3263 35.6024 32.86C36.7787 33.7531 37.3749 34.9781 37.3749 36.5C37.3749 36.5995 37.3354 36.6948 37.2651 36.7652C37.1948 36.8355 37.0994 36.875 36.9999 36.875C36.9005 36.875 36.8051 36.8355 36.7348 36.7652C36.6644 36.6948 36.6249 36.5995 36.6249 36.5C36.6249 33.75 34.298 32.8013 33.068 32.4931C33.018 32.5577 32.9668 32.6221 32.9143 32.6863C31.7112 34.1431 30.2055 34.9019 28.5324 34.9019C28.3421 34.9025 28.1518 34.8935 27.9624 34.875C27.9132 34.8701 27.8654 34.8555 27.8218 34.8321C27.7782 34.8087 27.7396 34.777 27.7082 34.7386C27.6449 34.6613 27.615 34.562 27.6249 34.4625C27.6349 34.363 27.6839 34.2716 27.7613 34.2083C27.8386 34.145 27.938 34.1151 28.0374 34.125C29.7018 34.2913 31.148 33.6463 32.3355 32.2069C33.158 31.2106 33.7068 29.9875 33.9655 29.135C31.4337 27.6025 29.8037 28.8363 29.733 28.8919C29.6551 28.9514 29.5569 28.978 29.4596 28.9659C29.3622 28.9539 29.2735 28.9043 29.2123 28.8276C29.1512 28.7509 29.1225 28.6533 29.1325 28.5557C29.1424 28.4582 29.1902 28.3684 29.2655 28.3056C29.2887 28.2869 29.8524 27.8413 30.813 27.6806C31.6793 27.5363 33.058 27.5994 34.7105 28.7225C37.6568 30.7225 39.328 30.0019 39.3443 29.9944C39.3891 29.9739 39.4375 29.9624 39.4868 29.9606C39.536 29.9588 39.5852 29.9667 39.6314 29.9838C39.6776 30.001 39.7199 30.0271 39.756 30.0607C39.7921 30.0942 39.8213 30.1346 39.8418 30.1794C39.8623 30.2242 39.8738 30.2726 39.8756 30.3219C39.8774 30.3711 39.8695 30.4202 39.8523 30.4664C39.8351 30.5126 39.809 30.555 39.7755 30.5911C39.7419 30.6272 39.7016 30.6564 39.6568 30.6769L39.6555 30.6788Z" fill="#7CDCFA"/>
<path d="M57.104 34.5V25.98H60.332C62.12 25.98 63.236 26.976 63.236 28.56C63.236 29.544 62.552 30.288 61.796 30.516C62.552 30.648 62.996 31.104 63.08 31.992L63.32 34.5H62.276L62.06 32.1C62 31.392 61.592 31.068 60.608 31.068H58.136V34.5H57.104ZM60.464 30.06C61.496 30.06 62.156 29.52 62.156 28.536C62.156 27.552 61.508 26.988 60.332 26.988H58.136V30.06H60.464ZM67.1105 34.644C65.8385 34.644 65.0225 33.744 65.0225 32.232V28.14H66.0305V31.956C66.0305 33.192 66.4625 33.756 67.3745 33.756C68.3825 33.756 68.9945 33.072 68.9945 31.932V28.14H70.0025V34.5H69.0425V33.468C68.6945 34.224 68.0225 34.644 67.1105 34.644ZM71.9248 34.5V28.14H72.8488L72.8728 29.28C73.2088 28.404 73.9528 27.996 74.8288 27.996C76.2808 27.996 76.9768 29.064 76.9768 30.408V34.5H75.9688V30.696C75.9688 29.52 75.5728 28.884 74.6128 28.884C73.6288 28.884 72.9328 29.52 72.9328 30.696V34.5H71.9248ZM78.6631 34.5V28.14H79.5871L79.6111 29.28C79.9471 28.404 80.6911 27.996 81.5671 27.996C83.0191 27.996 83.7151 29.064 83.7151 30.408V34.5H82.7071V30.696C82.7071 29.52 82.3111 28.884 81.3511 28.884C80.3671 28.884 79.6711 29.52 79.6711 30.696V34.5H78.6631ZM85.6358 34.5V28.14H86.6438V34.5H85.6358ZM85.6118 27.144V25.968H86.6678V27.144H85.6118ZM88.3897 34.5V28.14H89.3137L89.3377 29.28C89.6737 28.404 90.4177 27.996 91.2937 27.996C92.7457 27.996 93.4417 29.064 93.4417 30.408V34.5H92.4337V30.696C92.4337 29.52 92.0377 28.884 91.0777 28.884C90.0937 28.884 89.3977 29.52 89.3977 30.696V34.5H88.3897ZM97.6346 36.444C96.2666 36.444 95.2346 35.712 94.9706 34.596L96.0266 34.524C96.2186 35.124 96.6506 35.484 97.6346 35.484C98.7866 35.484 99.4226 35.028 99.4226 34.092V33.06C99.1106 33.732 98.3906 34.164 97.5626 34.164C95.9426 34.164 94.7906 32.892 94.7906 31.08C94.7906 29.268 95.9186 27.996 97.5146 27.996C98.4026 27.996 99.1826 28.44 99.4706 29.148V28.14H100.431V34.068C100.431 35.556 99.3866 36.444 97.6346 36.444ZM97.6106 33.204C98.7026 33.204 99.4106 32.388 99.4226 31.08C99.4466 29.772 98.7146 28.956 97.6106 28.956C96.4946 28.956 95.8466 29.772 95.8466 31.08C95.8466 32.388 96.5186 33.204 97.6106 33.204Z" fill="#7CDCFA"/>
<path d="M230 27L233 30L230 33" stroke="#7CDCFA" stroke-width="0.75" stroke-linecap="square"/>
<path d="M8 64C8 57.3726 13.3726 52 20 52H233C239.627 52 245 57.3726 245 64V84C245 90.6274 239.627 96 233 96H20C13.3726 96 8 90.6274 8 84V64Z" fill="#7CDCFA" fill-opacity="0.08"/>
<path d="M34 87.5C26.5442 87.5 20.5 81.4558 20.5 74C20.5 66.5442 26.5442 60.5 34 60.5C41.4558 60.5 47.5 66.5442 47.5 74C47.5 81.4558 41.4558 87.5 34 87.5Z" stroke="#7CDCFA" stroke-opacity="0.16"/>
<path d="M41.5 73.625H40.875V71.5C40.875 71.2679 40.7828 71.0454 40.6187 70.8813C40.4546 70.7172 40.2321 70.625 40 70.625H38.875V70C38.875 69.7679 38.7828 69.5454 38.6187 69.3813C38.4546 69.2172 38.2321 69.125 38 69.125H36.5C36.2679 69.125 36.0454 69.2172 35.8813 69.3813C35.7172 69.5454 35.625 69.7679 35.625 70V73.625H32.375V70C32.375 69.7679 32.2828 69.5454 32.1187 69.3813C31.9546 69.2172 31.7321 69.125 31.5 69.125H30C29.7679 69.125 29.5454 69.2172 29.3813 69.3813C29.2172 69.5454 29.125 69.7679 29.125 70V70.625H28C27.7679 70.625 27.5454 70.7172 27.3813 70.8813C27.2172 71.0454 27.125 71.2679 27.125 71.5V73.625H26.5C26.4005 73.625 26.3052 73.6645 26.2348 73.7348C26.1645 73.8052 26.125 73.9005 26.125 74C26.125 74.0995 26.1645 74.1948 26.2348 74.2652C26.3052 74.3355 26.4005 74.375 26.5 74.375H27.125V76.5C27.125 76.7321 27.2172 76.9546 27.3813 77.1187C27.5454 77.2828 27.7679 77.375 28 77.375H29.125V78C29.125 78.2321 29.2172 78.4546 29.3813 78.6187C29.5454 78.7828 29.7679 78.875 30 78.875H31.5C31.7321 78.875 31.9546 78.7828 32.1187 78.6187C32.2828 78.4546 32.375 78.2321 32.375 78V74.375H35.625V78C35.625 78.2321 35.7172 78.4546 35.8813 78.6187C36.0454 78.7828 36.2679 78.875 36.5 78.875H38C38.2321 78.875 38.4546 78.7828 38.6187 78.6187C38.7828 78.4546 38.875 78.2321 38.875 78V77.375H40C40.2321 77.375 40.4546 77.2828 40.6187 77.1187C40.7828 76.9546 40.875 76.7321 40.875 76.5V74.375H41.5C41.5995 74.375 41.6948 74.3355 41.7652 74.2652C41.8355 74.1948 41.875 74.0995 41.875 74C41.875 73.9005 41.8355 73.8052 41.7652 73.7348C41.6948 73.6645 41.5995 73.625 41.5 73.625ZM28 76.625C27.9668 76.625 27.9351 76.6118 27.9116 76.5884C27.8882 76.5649 27.875 76.5332 27.875 76.5V71.5C27.875 71.4668 27.8882 71.4351 27.9116 71.4116C27.9351 71.3882 27.9668 71.375 28 71.375H29.125V76.625H28ZM31.625 78C31.625 78.0332 31.6118 78.0649 31.5884 78.0884C31.5649 78.1118 31.5332 78.125 31.5 78.125H30C29.9668 78.125 29.9351 78.1118 29.9116 78.0884C29.8882 78.0649 29.875 78.0332 29.875 78V70C29.875 69.9668 29.8882 69.9351 29.9116 69.9116C29.9351 69.8882 29.9668 69.875 30 69.875H31.5C31.5332 69.875 31.5649 69.8882 31.5884 69.9116C31.6118 69.9351 31.625 69.9668 31.625 70V78ZM38.125 78C38.125 78.0332 38.1118 78.0649 38.0884 78.0884C38.0649 78.1118 38.0332 78.125 38 78.125H36.5C36.4668 78.125 36.4351 78.1118 36.4116 78.0884C36.3882 78.0649 36.375 78.0332 36.375 78V70C36.375 69.9668 36.3882 69.9351 36.4116 69.9116C36.4351 69.8882 36.4668 69.875 36.5 69.875H38C38.0332 69.875 38.0649 69.8882 38.0884 69.9116C38.1118 69.9351 38.125 69.9668 38.125 70V78ZM40.125 76.5C40.125 76.5332 40.1118 76.5649 40.0884 76.5884C40.0649 76.6118 40.0332 76.625 40 76.625H38.875V71.375H40C40.0332 71.375 40.0649 71.3882 40.0884 71.4116C40.1118 71.4351 40.125 71.4668 40.125 71.5V76.5Z" fill="#7CDCFA"/>
<path d="M58.496 78.5L56.252 69.98H57.38L59.132 77.084L60.872 69.98H62.048L63.8 77.084L65.54 69.98H66.68L64.436 78.5H63.14L61.46 71.9L59.78 78.5H58.496ZM69.8159 78.644C68.0159 78.644 66.8999 77.336 66.8999 75.32C66.8999 73.304 68.0159 71.996 69.7679 71.996C71.4239 71.996 72.5759 73.196 72.5759 75.332V75.632H67.9559C68.0279 77 68.7119 77.684 69.8159 77.684C70.6439 77.684 71.1839 77.264 71.3999 76.616L72.4799 76.7C72.1439 77.84 71.1599 78.644 69.8159 78.644ZM71.4719 74.744C71.3759 73.52 70.7039 72.956 69.7679 72.956C68.7839 72.956 68.1239 73.568 67.9559 74.744H71.4719ZM73.8702 78.5V72.14H74.8782V78.5H73.8702ZM73.8462 71.144V69.968H74.9022V71.144H73.8462ZM79.2478 80.444C77.8798 80.444 76.8478 79.712 76.5838 78.596L77.6398 78.524C77.8318 79.124 78.2638 79.484 79.2478 79.484C80.3998 79.484 81.0358 79.028 81.0358 78.092V77.06C80.7238 77.732 80.0038 78.164 79.1758 78.164C77.5558 78.164 76.4038 76.892 76.4038 75.08C76.4038 73.268 77.5318 71.996 79.1278 71.996C80.0158 71.996 80.7958 72.44 81.0838 73.148V72.14H82.0438V78.068C82.0438 79.556 80.9998 80.444 79.2478 80.444ZM79.2238 77.204C80.3158 77.204 81.0238 76.388 81.0358 75.08C81.0598 73.772 80.3278 72.956 79.2238 72.956C78.1078 72.956 77.4598 73.772 77.4598 75.08C77.4598 76.388 78.1318 77.204 79.2238 77.204ZM83.7842 78.5V69.98H84.7922V73.136C85.1162 72.356 85.8362 71.996 86.7122 71.996C88.0802 71.996 88.8362 72.992 88.8362 74.408V78.5H87.8282V74.696C87.8282 73.472 87.3842 72.884 86.4962 72.884C85.4642 72.884 84.7922 73.532 84.7922 74.708V78.5H83.7842ZM92.7216 78.5C91.5696 78.5 91.0296 77.996 91.0296 76.868V73.028H90.0936V72.14H91.0296V70.652H92.0376V72.14H93.7296V73.028H92.0376V76.844C92.0376 77.42 92.2896 77.612 92.8176 77.612H93.7296V78.5H92.7216ZM100.456 78.5C99.304 78.5 98.764 77.996 98.764 76.868V73.028H97.828V72.14H98.764V70.652H99.772V72.14H101.464V73.028H99.772V76.844C99.772 77.42 100.024 77.612 100.552 77.612H101.464V78.5H100.456ZM102.921 78.5V72.14H103.809L103.845 73.316C104.073 72.512 104.577 72.14 105.357 72.14H105.981V73.1H105.369C104.409 73.1 103.929 73.616 103.929 74.66V78.5H102.921ZM108.892 78.644C107.572 78.644 106.744 78.008 106.744 76.916C106.744 75.836 107.356 75.236 108.748 74.972L111.004 74.552C111.004 73.484 110.5 72.956 109.492 72.956C108.604 72.956 108.112 73.364 107.92 74.096L106.852 74.012C107.092 72.812 108.052 71.996 109.492 71.996C111.124 71.996 112.012 72.98 112.012 74.588V77.216C112.012 77.504 112.108 77.612 112.348 77.612H112.6V78.5C112.528 78.512 112.372 78.524 112.216 78.524C111.448 78.524 111.1 78.224 111.016 77.516C110.704 78.176 109.828 78.644 108.892 78.644ZM108.988 77.756C110.26 77.756 111.004 76.94 111.004 75.884V75.428L108.94 75.812C108.076 75.968 107.8 76.292 107.8 76.82C107.8 77.42 108.244 77.756 108.988 77.756ZM113.983 78.5V72.14H114.991V78.5H113.983ZM113.959 71.144V69.968H115.015V71.144H113.959ZM116.737 78.5V72.14H117.661L117.685 73.28C118.021 72.404 118.765 71.996 119.641 71.996C121.093 71.996 121.789 73.064 121.789 74.408V78.5H120.781V74.696C120.781 73.52 120.385 72.884 119.425 72.884C118.441 72.884 117.745 73.52 117.745 74.696V78.5H116.737ZM123.71 78.5V72.14H124.718V78.5H123.71ZM123.686 71.144V69.968H124.742V71.144H123.686ZM126.464 78.5V72.14H127.388L127.412 73.28C127.748 72.404 128.492 71.996 129.368 71.996C130.82 71.996 131.516 73.064 131.516 74.408V78.5H130.508V74.696C130.508 73.52 130.112 72.884 129.152 72.884C128.168 72.884 127.472 73.52 127.472 74.696V78.5H126.464ZM135.709 80.444C134.341 80.444 133.309 79.712 133.045 78.596L134.101 78.524C134.293 79.124 134.725 79.484 135.709 79.484C136.861 79.484 137.497 79.028 137.497 78.092V77.06C137.185 77.732 136.465 78.164 135.637 78.164C134.017 78.164 132.865 76.892 132.865 75.08C132.865 73.268 133.993 71.996 135.589 71.996C136.477 71.996 137.257 72.44 137.545 73.148V72.14H138.505V78.068C138.505 79.556 137.461 80.444 135.709 80.444ZM135.685 77.204C136.777 77.204 137.485 76.388 137.497 75.08C137.521 73.772 136.789 72.956 135.685 72.956C134.569 72.956 133.921 73.772 133.921 75.08C133.921 76.388 134.593 77.204 135.685 77.204Z" fill="#7CDCFA"/>
<path d="M230 71L233 74L230 77" stroke="#7CDCFA" stroke-width="0.75" stroke-linecap="square"/>
<path d="M34 131.5C26.5442 131.5 20.5 125.456 20.5 118C20.5 110.544 26.5442 104.5 34 104.5C41.4558 104.5 47.5 110.544 47.5 118C47.5 125.456 41.4558 131.5 34 131.5Z" stroke="#7CDCFA" stroke-opacity="0.16"/>
<path d="M34 114.875C34.3708 114.875 34.7334 114.765 35.0417 114.559C35.35 114.353 35.5904 114.06 35.7323 113.718C35.8742 113.375 35.9113 112.998 35.839 112.634C35.7666 112.27 35.588 111.936 35.3258 111.674C35.0636 111.412 34.7295 111.233 34.3658 111.161C34.0021 111.089 33.6251 111.126 33.2825 111.268C32.9399 111.41 32.647 111.65 32.441 111.958C32.235 112.267 32.125 112.629 32.125 113C32.125 113.497 32.3225 113.974 32.6742 114.326C33.0258 114.677 33.5027 114.875 34 114.875ZM34 111.875C34.2225 111.875 34.44 111.941 34.625 112.065C34.81 112.188 34.9542 112.364 35.0394 112.569C35.1245 112.775 35.1468 113.001 35.1034 113.219C35.06 113.438 34.9528 113.638 34.7955 113.795C34.6382 113.953 34.4377 114.06 34.2195 114.103C34.0012 114.147 33.775 114.125 33.5695 114.039C33.3639 113.954 33.1882 113.81 33.0646 113.625C32.941 113.44 32.875 113.223 32.875 113C32.875 112.702 32.9935 112.415 33.2045 112.205C33.4155 111.994 33.7016 111.875 34 111.875ZM39.875 116.5C39.875 116.599 39.8355 116.695 39.7652 116.765C39.6948 116.835 39.5995 116.875 39.5 116.875H34.375V118.75L37.6475 120.153C37.7153 120.182 37.7731 120.231 37.8136 120.292C37.854 120.354 37.8754 120.426 37.875 120.5V123.5C37.875 123.599 37.8355 123.695 37.7652 123.765C37.6948 123.835 37.5995 123.875 37.5 123.875C37.4005 123.875 37.3052 123.835 37.2348 123.765C37.1645 123.695 37.125 123.599 37.125 123.5V120.75L34.0725 119.438L29.25 123.779C29.1752 123.839 29.0803 123.868 28.9847 123.86C28.8891 123.852 28.8002 123.808 28.7361 123.737C28.6721 123.665 28.6379 123.572 28.6405 123.476C28.643 123.38 28.6822 123.289 28.75 123.221L33.625 118.833V116.875H28.5C28.4005 116.875 28.3052 116.835 28.2348 116.765C28.1645 116.695 28.125 116.599 28.125 116.5C28.125 116.401 28.1645 116.305 28.2348 116.235C28.3052 116.165 28.4005 116.125 28.5 116.125H39.5C39.5995 116.125 39.6948 116.165 39.7652 116.235C39.8355 116.305 39.875 116.401 39.875 116.5Z" fill="#7CDCFA"/>
<path d="M59.264 122.5V119.02L56.252 113.98H57.476L59.78 117.964L62.084 113.98H63.308L60.296 119.02V122.5H59.264ZM66.4409 122.644C64.6769 122.644 63.5249 121.348 63.5249 119.32C63.5249 117.292 64.6769 115.996 66.4409 115.996C68.1929 115.996 69.3449 117.292 69.3449 119.32C69.3449 121.348 68.1929 122.644 66.4409 122.644ZM66.4409 121.684C67.6049 121.684 68.2889 120.796 68.2889 119.32C68.2889 117.844 67.6049 116.956 66.4409 116.956C65.2649 116.956 64.5809 117.844 64.5809 119.32C64.5809 120.796 65.2649 121.684 66.4409 121.684ZM73.2596 124.444C71.8916 124.444 70.8596 123.712 70.5956 122.596L71.6516 122.524C71.8436 123.124 72.2756 123.484 73.2596 123.484C74.4116 123.484 75.0476 123.028 75.0476 122.092V121.06C74.7356 121.732 74.0156 122.164 73.1876 122.164C71.5676 122.164 70.4156 120.892 70.4156 119.08C70.4156 117.268 71.5436 115.996 73.1396 115.996C74.0276 115.996 74.8076 116.44 75.0956 117.148V116.14H76.0556V122.068C76.0556 123.556 75.0116 124.444 73.2596 124.444ZM73.2356 121.204C74.3276 121.204 75.0356 120.388 75.0476 119.08C75.0716 117.772 74.3396 116.956 73.2356 116.956C72.1196 116.956 71.4716 117.772 71.4716 119.08C71.4716 120.388 72.1436 121.204 73.2356 121.204ZM79.7237 122.644C78.4037 122.644 77.5757 122.008 77.5757 120.916C77.5757 119.836 78.1877 119.236 79.5797 118.972L81.8357 118.552C81.8357 117.484 81.3317 116.956 80.3237 116.956C79.4357 116.956 78.9437 117.364 78.7517 118.096L77.6837 118.012C77.9237 116.812 78.8837 115.996 80.3237 115.996C81.9557 115.996 82.8437 116.98 82.8437 118.588V121.216C82.8437 121.504 82.9397 121.612 83.1797 121.612H83.4317V122.5C83.3597 122.512 83.2037 122.524 83.0477 122.524C82.2797 122.524 81.9317 122.224 81.8477 121.516C81.5357 122.176 80.6597 122.644 79.7237 122.644ZM79.8197 121.756C81.0917 121.756 81.8357 120.94 81.8357 119.884V119.428L79.7717 119.812C78.9077 119.968 78.6317 120.292 78.6317 120.82C78.6317 121.42 79.0757 121.756 79.8197 121.756Z" fill="#7CDCFA"/>
<path d="M230 115L233 118L230 121" stroke="#7CDCFA" stroke-width="0.75" stroke-linecap="square"/>
</svg>
